<svg xmlns="http://www.w3.org/2000/svg" viewBox="0 0 600 400"><defs><style>.cls-1{fill:#fff;}</style></defs><g id="M"><path class="cls-1" d="M184.754,163.811a2.133,2.133,0,0,0-2.133-2.133H156.405a2.133,2.133,0,0,0-2.133,2.133v26.216a2.133,2.133,0,0,0,2.133,2.133h26.216a2.133,2.133,0,0,0,2.133-2.133V163.811Z"/><path class="cls-1" d="M245.777,85.475H156.405a2.133,2.133,0,0,0-2.133,2.133v41.456a2.133,2.133,0,0,0,2.133,2.133h26.216a2.133,2.133,0,0,0,2.133-2.133V118.089a2.132,2.132,0,0,1,2.132-2.132h51.241a7.622,7.622,0,0,1,7.621,7.62v60.962a7.622,7.622,0,0,1-7.621,7.621H186.886a2.132,2.132,0,0,0-2.132,2.132v26.216a2.132,2.132,0,0,0,2.132,2.133l28.376,0,30.508,0a30.479,30.479,0,0,0,30.481-30.481v-.007h.008v-76.2a30.482,30.482,0,0,0-30.482-30.482Z"/><path class="cls-1" d="M125.924,192.16a2.133,2.133,0,0,0-2.133,2.132v26.216a2.133,2.133,0,0,0,2.133,2.133h26.215a2.133,2.133,0,0,0,2.133-2.133V194.292a2.133,2.133,0,0,0-2.133-2.132H125.924Z"/><path class="cls-1" d="M308.858,146.437a2.133,2.133,0,0,0-2.133,2.133v71.938a2.133,2.133,0,0,0,2.133,2.133h26.231a2.133,2.133,0,0,0,2.133-2.133V148.57a2.133,2.133,0,0,0-2.133-2.133H308.858Z"/><path class="cls-1" d="M369.82,115.957a2.133,2.133,0,0,0-2.133,2.132V220.508a2.133,2.133,0,0,0,2.133,2.133h26.23a2.133,2.133,0,0,0,2.133-2.133V118.089a2.133,2.133,0,0,0-2.133-2.132H369.82Z"/><path class="cls-1" d="M430.782,85.476a2.132,2.132,0,0,0-2.132,2.132v132.9a2.133,2.133,0,0,0,2.132,2.133h26.23a2.133,2.133,0,0,0,2.133-2.133V87.608a2.132,2.132,0,0,0-2.133-2.132h-26.23Z"/><path class="cls-1" d="M116.928,314.525c-1.339,0-1.928-.59-1.928-1.928V277.891c0-1.339.589-1.928,1.928-1.928h18.049c9,0,13.175,3.481,13.175,10.926V303.6c0,7.445-4.178,10.926-13.175,10.926Zm10.23-10.123h6.373c1.714,0,2.517-.8,2.517-2.624V288.763c0-1.767-.8-2.57-2.517-2.57h-6.373Z"/><path class="cls-1" d="M159.456,312.6v-6.374c0-1.339.589-1.928,1.928-1.928h5.3v-18h-5.3c-1.339,0-1.928-.589-1.928-1.928v-6.481c0-1.339.589-1.928,1.928-1.928H184.2c1.339,0,1.928.589,1.928,1.928v6.481c0,1.339-.589,1.928-1.928,1.928H179v18h5.2c1.339,0,1.928.589,1.928,1.928V312.6c0,1.338-.589,1.928-1.928,1.928H161.384C160.045,314.525,159.456,313.935,159.456,312.6Z"/><path class="cls-1" d="M210.659,314.525c-9,0-13.175-3.481-13.175-10.926v-16.71c0-7.445,4.178-10.926,13.175-10.926h13.39c1.339,0,1.928.589,1.928,1.928v6.481c0,1.339-.589,1.928-1.928,1.928h-11.14c-2.25,0-3.267.856-3.267,2.678v12.8c0,1.821.8,2.624,2.464,2.624H217.3v-8.355c0-1.339.589-1.928,1.928-1.928h8.3c1.339,0,1.928.589,1.928,1.928V312.6c0,1.338-.589,1.928-1.928,1.928Z"/><path class="cls-1" d="M240.494,312.6v-6.374c0-1.339.59-1.928,1.928-1.928h5.3v-18h-5.3c-1.338,0-1.928-.589-1.928-1.928v-6.481c0-1.339.59-1.928,1.928-1.928h22.816c1.339,0,1.928.589,1.928,1.928v6.481c0,1.339-.589,1.928-1.928,1.928h-5.195v18h5.195c1.339,0,1.928.589,1.928,1.928V312.6c0,1.338-.589,1.928-1.928,1.928H242.422C241.084,314.525,240.494,313.935,240.494,312.6Z"/><path class="cls-1" d="M281.04,314.525c-1.339,0-1.928-.59-1.928-1.928V277.891c0-1.339.589-1.928,1.928-1.928h8.623a2.535,2.535,0,0,1,2.464,1.607l4.82,8.73c.375.642.535.91.964.91h.482c.428,0,.589-.268.964-.91l4.767-8.73a2.533,2.533,0,0,1,2.463-1.607h8.677c1.339,0,1.928.589,1.928,1.928V312.6c0,1.338-.589,1.928-1.928,1.928h-8.248c-1.393,0-1.928-.59-1.928-1.928V293.744l-3.16,5.838a2.812,2.812,0,0,1-2.839,1.714h-2.142a2.812,2.812,0,0,1-2.839-1.714l-3.16-5.838V312.6c0,1.338-.589,1.928-1.928,1.928Z"/><path class="cls-1" d="M331.87,314.525c-1.338,0-1.927-.59-1.927-1.928V277.891c0-1.339.589-1.928,1.927-1.928h24.851c1.339,0,1.928.589,1.928,1.928v6.266c0,1.339-.589,1.928-1.928,1.928H341.94v4.125h10.443c1.339,0,1.928.589,1.928,1.928v5.73c0,1.339-.589,1.928-1.928,1.928H341.94V304.4h14.781c1.339,0,1.928.589,1.928,1.928V312.6c0,1.338-.589,1.928-1.928,1.928Z"/><path class="cls-1" d="M379.861,314.525c-1.339,0-1.928-.59-1.928-1.928V286.3H370.06c-1.339,0-1.928-.589-1.928-1.928v-6.481c0-1.339.589-1.928,1.928-1.928h28.278c1.339,0,1.928.589,1.928,1.928v6.481c0,1.339-.589,1.928-1.928,1.928h-7.873v26.3c0,1.338-.589,1.928-1.928,1.928Z"/><path class="cls-1" d="M412.748,314.525c-1.339,0-1.928-.59-1.928-1.928V277.891c0-1.339.589-1.928,1.928-1.928H437.6c1.339,0,1.928.589,1.928,1.928v6.266c0,1.339-.589,1.928-1.928,1.928H422.817v4.125h10.444c1.339,0,1.928.589,1.928,1.928v5.73c0,1.339-.589,1.928-1.928,1.928H422.817V304.4H437.6c1.339,0,1.928.589,1.928,1.928V312.6c0,1.338-.589,1.928-1.928,1.928Z"/><path class="cls-1" d="M453.133,314.525c-1.339,0-1.928-.59-1.928-1.928V277.891c0-1.339.589-1.928,1.928-1.928h17.835c8.034,0,10.551,3.642,10.551,8.944v2.464c0,3-.75,5.141-3,6.106,3.909.428,6.48,3.267,6.48,7.765V312.6c0,1.338-.589,1.928-1.928,1.928h-8.3c-1.339,0-1.929-.59-1.929-1.928V304.4c0-1.607-.535-2.3-2.035-2.3h-7.5v10.5c0,1.338-.589,1.928-1.928,1.928Zm10.176-22.066h4.017c1.875,0,2.357-1.071,2.357-2.517v-1.821c0-1.446-.482-2.517-2.357-2.517h-4.017Z"/></g></svg>